<svg xmlns="http://www.w3.org/2000/svg" xmlns:xlink="http://www.w3.org/1999/xlink" version="1.1" x="0px" y="0px" viewBox="0 0 256 256" enable-background="new 0 0 256 256" xml:space="preserve">
<metadata> Svg Vector Icons : http://www.onlinewebfonts.com/icon </metadata>
<g><g><g><path fill="#000000" d="M78.5,10.8c-1.4,0.5-3.3,1.4-4.2,2c-2.5,1.5-42.8,47.7-44.2,50.7c-2.7,5.6-2.6,2.8-2.6,68.6v60.6l1.1,2.1c0.6,1.2,1.7,2.5,2.7,3.1c1.6,0.9,2.6,1,21.1,1.1l19.4,0.1v-12v-11.9H60.9c-10.5,0-10.9,0-12.5-1.1c-3.5-2.3-3.3,1-3.3-51.3c0-44.8,0-47,0.9-48.9c0.7-1.5,1.4-2.2,3-3c2-1,2.8-1,13.7-1c17,0,16.2,0.9,16.2-18.8c0-12.7,0-13.1,1.1-14.6c2.3-3.4,0.5-3.3,37.7-3.3c31.5,0,33.5,0,35.3,0.9c2.6,1.1,4,4,4,7.8v2.7h8.9h8.8L174.6,30c-0.1-13.6-0.2-14.7-1.1-16.2c-0.5-0.9-1.6-2-2.3-2.6c-1.3-1-1.4-1-45.7-1.1C82.8,9.9,81,9.9,78.5,10.8z"/><path fill="#000000" d="M134.8,57.5c-2.4,0.5-6.5,2.5-8.1,4c-2.7,2.5-41.3,46.9-42.2,48.7c-0.6,1.1-1.5,3.1-2,4.6c-0.9,2.5-0.9,5.4-0.9,64.3c0,60.8,0,61.7,1,63.3c0.5,0.9,1.6,2,2.3,2.6l1.3,1h68.8c68.7,0,68.8,0,70.1-1c0.7-0.5,1.8-1.6,2.3-2.3l1-1.3l0.1-89l0.1-89l-1-2.1c-0.7-1.2-1.8-2.5-2.8-3.1c-1.6-1-2.4-1-44.8-1C156.2,57.2,135.9,57.4,134.8,57.5z M208.3,82.3c2.8,2.5,2.6-1.2,2.6,69.4c0,63.5,0,65.2-1,67.2c-0.7,1.6-1.4,2.2-3,3c-2,0.9-3.5,1-52.1,1c-48.6,0-50.1,0-52.1-1c-1.6-0.7-2.2-1.4-3-3.1c-0.9-2.1-0.9-3.2-0.8-49.5l0.1-47.3l1.1-1.6c1.9-2.7,2.2-2.7,15.7-3c17.7-0.3,16.8,0.7,16.8-18.6c0-14.5,0.1-15.2,3.1-17.2c1.4-1,2.2-1,36.3-0.9l34.8,0.1L208.3,82.3z"/><path fill="#000000" d="M118.9,137.8v7.4h36h36v-7.4v-7.4h-36h-36V137.8z"/><path fill="#000000" d="M118.9,165v7.4h36h36V165v-7.4h-36h-36V165z"/><path fill="#000000" d="M118.9,191.9v7.1h36h36v-7.1v-7.1h-36h-36V191.9z"/></g></g></g>
</svg>